<?xml version="1.0" encoding="UTF-8"?>
<svg width="500" height="431" version="1.1" viewBox="0 0 500 431" xmlns="http://www.w3.org/2000/svg">
 <g transform="matrix(5.9475 0 0 5.9475 1.331e-6 .23257)">
  <path transform="translate(-272.23 -198.79)" d="m277.85 226.69a30.879 30.879 0 0 0-5.6211 0.5 14.084 14.084 0 0 1 0.36719 3.5254v39.779h16.221c5.592 0 6.1992-4.5292 6.1992-10.117h-10.812v-30.1c-0.018-2.787-1.9025-3.5879-6.3535-3.5879zm74.055 8.9453c-6.631 0-8.4121 4.8555-8.4121 4.8555h-0.20117l-1-4.1738h-8.1328v34.184h11.092v-23.311s1.4326-1.9766 5.8066-1.9766a22.137 22.137 0 0 1 4.0391 0.53906l0.4375-1.3008c2.106-6.424-0.48391-8.8164-3.6289-8.8164zm-36.146 4e-3c-11.687 0-17.973 7.853-17.986 19 3e-3 9.775 3.7531 16.543 11.953 16.543a11.774 11.774 0 0 0 9.0195-4.4473l0.13867 8e-3a5.234 5.234 0 0 0 5.291 4.1016c4.923 0 6.6156-3.5594 6.0156-6.3594-1.576 0-2.2152-1.1629-2.1992-3.9629v-22.762a34.575 34.575 0 0 0-12.232-2.1211zm-0.73633 8.8809a14.575 14.575 0 0 1 2.1797 0.20508v16.334a4.419 4.419 0 0 1-3.1582 1.3691c-2.533 0-5.448-1.2942-5.457-8.2012 0.017-5.742 2.8816-9.707 6.4356-9.707z" fill="#444344"/>
  <path transform="translate(-262.36 -156.82)" d="m312.3 163.69c-4.28 0-7.927 2-11.2 6.98-0.283 0.427-0.755 0.382-0.917 0.013-1.077-2.462-4.431-7.006-8.293-7.006-3.7 0-8.528 3.044-8.528 11.151a14.051 14.051 0 0 0 4.329 10.026c0.38 0.334-0.046 0.851-0.628 0.475a16.264 16.264 0 0 1-7.823-14.284c0-8.229 5.759-14.114 11.856-14.114 4.352 0 7.995 3.3 9.955 7.492 3.538-4.938 8.63-7.6 13.267-7.6 6.664 0 12.63 3.923 12.63 12.4 0 11.627-7.1 18.24-21.305 20.317-6.285 0.922-15.614 2.333-20.015 11.363-0.258 0.531-1.241-0.118-1.012-0.767 3.147-8.812 11.3-13.541 20.008-15.331 9.507-1.957 14.515-7.834 14.515-13.339 0-4.206-2.137-7.769-6.833-7.769" fill="#e51a41" data-name="Caminho 157"/>
 </g>
</svg>
